# xmcd
#
# Track frame offsets: 
#        150
#        13500
#        27625
#        38865
#        52970
#        66152
#        79175
#        91150
#        102395
#        114575
#        127457
#        139777
#        152355
#        162687
#        175172
#        189277
#        201842
#        216125
#        228897
#        244120
#        258967
#        269955
#        280600
#        295315
#        308350
#
# Disc length: 4283 seconds
#
# Revision: 2
# Processed by: cddbd v1.5.2PL0 Copyright (c) Steve Scherf et al.
# Submitted via: ExactAudioCopy v0.95b4
#
DISCID=6810b919
DTITLE=Various Artist - Chicago Blues - The Chance Era, Disc Two
DYEAR=1997
DGENRE=Blues
TTITLE0=John Lee Hooker - Road Trouble
TTITLE1=John Lee Hooker - Talkin' Boogie
TTITLE2=Little Walter Jacobs - I Just Keep Loving Her
TTITLE3=Homesick James Williamson - Homesick
TTITLE4=Homesick James Williamson - Williamson Boogie
TTITLE5=Arthur "Big Boy" Spires - Which One Do I Love (Sometimes I Won
TTITLE5=der)
TTITLE6=Arthur "Big Boy" Spires - Rhythm Rock Boogie
TTITLE7=Arthur "Big Boy" Spires - Tired of Being Mistreated
TTITLE8=Willie Nix - Just Can't Stay
TTITLE9=Willie Nix - All by Myself
TTITLE10=Lazy Bill Lucas - My Baby's Gone
TTITLE11=Lazy Bill Lucas - I Can't Eat, Can't Sleep
TTITLE12=J.B. Hutto - Combination Boogie
TTITLE13=J.B. Hutto - Dim Lights
TTITLE14=J.B. Hutto - Things Are So Slow
TTITLE15=Homesick James Williamson - Johnnie Mae
TTITLE16=Homesick James Williamson - Farmer's Blues
TTITLE17=Homesick James Williamson - Lonesome Blues
TTITLE18=Delta Joe (Sunnyland Slim) - Roll, Tumble and Slip (I Cried)
TTITLE19=Delta Joe (Sunnyland Slim) - Train Time (4 O'Clock Blues)
TTITLE20=Homesick James Williamson - Long Lonesome Day
TTITLE21=Homesick James Williamson - Late Hours at Midnight
TTITLE22=J.B. Hutto - Now She's Gone
TTITLE23=Arthur "Big Boy" Spires - Please Mr. Doctor
TTITLE24=John Lee Hooker - 609 Boogie
EXTD=
EXTT0=
EXTT1=
EXTT2=
EXTT3=
EXTT4=
EXTT5=
EXTT6=
EXTT7=
EXTT8=
EXTT9=
EXTT10=
EXTT11=
EXTT12=
EXTT13=
EXTT14=
EXTT15=
EXTT16=
EXTT17=
EXTT18=
EXTT19=
EXTT20=
EXTT21=
EXTT22=
EXTT23=
EXTT24=
PLAYORDER=
